# Blender 4.2.2 LTS
# www.blender.org
mtllib Basic_Platform.mtl
o Platform
v 0.000000 0.100000 -1.000000
v 0.000000 0.000000 -1.000000
v 0.000000 0.100000 1.000000
v 0.000000 0.000000 1.000000
v -2.000000 0.100000 -1.000000
v -2.000000 0.000000 -1.000000
v -2.000000 0.100000 1.000000
v -2.000000 0.000000 1.000000
vn -0.0000 1.0000 -0.0000
vn -0.0000 -0.0000 1.0000
vn -1.0000 -0.0000 -0.0000
vn -0.0000 -1.0000 -0.0000
vn 1.0000 -0.0000 -0.0000
vn -0.0000 -0.0000 -1.0000
vt 1.000000 1.000000
vt 0.000000 1.000000
vt 0.000000 0.000000
vt 1.000000 0.000000
vt 1.000000 0.475000
vt 1.000000 0.525000
vt 0.000000 0.525000
vt 0.000000 0.475000
s 0
usemtl Material
f 1/1/1 5/2/1 7/3/1 3/4/1
f 4/5/2 3/6/2 7/7/2 8/8/2
f 8/8/3 7/7/3 5/6/3 6/5/3
f 6/2/4 2/1/4 4/4/4 8/3/4
f 2/5/5 1/6/5 3/7/5 4/8/5
f 6/8/6 5/7/6 1/6/6 2/5/6
