# Blender 4.2.2 LTS
# www.blender.org
mtllib Course 1.mtl
o Platform.001
v 2.492214 -2.075389 64.453888
v 2.492214 -2.324610 64.453888
v 2.492214 -2.075389 66.946106
v 2.492214 -2.324610 66.946106
v -2.492218 -2.075389 64.453888
v -2.492218 -2.324610 64.453888
v -2.492218 -2.075389 66.946106
v -2.492218 -2.324610 66.946106
v 6.492214 -2.656228 58.453888
v 6.492214 -2.905450 58.453888
v 6.492214 -2.656228 60.946106
v 6.492214 -2.905450 60.946106
v 1.507782 -2.656228 58.453888
v 1.507782 -2.905450 58.453888
v 1.507782 -2.656228 60.946106
v 1.507782 -2.905450 60.946106
v 0.510451 -2.075389 51.253883
v 0.510451 -2.324610 51.253883
v 0.510451 -2.075389 53.746101
v 0.510451 -2.324610 53.746101
v -4.473981 -2.075389 51.253883
v -4.473981 -2.324610 51.253883
v -4.473981 -2.075389 53.746101
v -4.473981 -2.324610 53.746101
v 2.492214 -1.545894 45.100418
v 2.492214 -1.795115 45.100418
v 2.492214 -1.545894 47.592632
v 2.492214 -1.795115 47.592632
v -2.492218 -1.545894 45.100418
v -2.492218 -1.795115 45.100418
v -2.492218 -1.545894 47.592632
v -2.492218 -1.795115 47.592632
v 0.709055 -2.164248 37.661537
v 0.709055 -2.413470 37.661537
v 0.709055 -2.164248 40.153751
v 0.709055 -2.413470 40.153751
v -4.275377 -2.164248 37.661537
v -4.275377 -2.413470 37.661537
v -4.275377 -2.164248 40.153751
v -4.275377 -2.413470 40.153751
vn -0.0000 1.0000 -0.0000
vn -0.0000 -0.0000 1.0000
vn -1.0000 -0.0000 -0.0000
vn -0.0000 -1.0000 -0.0000
vn 1.0000 -0.0000 -0.0000
vn -0.0000 -0.0000 -1.0000
vt 1.000000 1.000000
vt 0.000000 1.000000
vt 0.000000 0.000000
vt 1.000000 0.000000
vt 1.000000 0.475000
vt 1.000000 0.525000
vt 0.000000 0.525000
vt 0.000000 0.475000
s 0
usemtl Material
f 1/1/1 5/2/1 7/3/1 3/4/1
f 4/5/2 3/6/2 7/7/2 8/8/2
f 8/8/3 7/7/3 5/6/3 6/5/3
f 6/2/4 2/1/4 4/4/4 8/3/4
f 2/5/5 1/6/5 3/7/5 4/8/5
f 6/8/6 5/7/6 1/6/6 2/5/6
f 9/1/1 13/2/1 15/3/1 11/4/1
f 12/5/2 11/6/2 15/7/2 16/8/2
f 16/8/3 15/7/3 13/6/3 14/5/3
f 14/2/4 10/1/4 12/4/4 16/3/4
f 10/5/5 9/6/5 11/7/5 12/8/5
f 14/8/6 13/7/6 9/6/6 10/5/6
f 17/1/1 21/2/1 23/3/1 19/4/1
f 20/5/2 19/6/2 23/7/2 24/8/2
f 24/8/3 23/7/3 21/6/3 22/5/3
f 22/2/4 18/1/4 20/4/4 24/3/4
f 18/5/5 17/6/5 19/7/5 20/8/5
f 22/8/6 21/7/6 17/6/6 18/5/6
f 25/1/1 29/2/1 31/3/1 27/4/1
f 28/5/2 27/6/2 31/7/2 32/8/2
f 32/8/3 31/7/3 29/6/3 30/5/3
f 30/2/4 26/1/4 28/4/4 32/3/4
f 26/5/5 25/6/5 27/7/5 28/8/5
f 30/8/6 29/7/6 25/6/6 26/5/6
f 33/1/1 37/2/1 39/3/1 35/4/1
f 36/5/2 35/6/2 39/7/2 40/8/2
f 40/8/3 39/7/3 37/6/3 38/5/3
f 38/2/4 34/1/4 36/4/4 40/3/4
f 34/5/5 33/6/5 35/7/5 36/8/5
f 38/8/6 37/7/6 33/6/6 34/5/6
o Walls.001
v 7.999996 -9.999999 -68.299988
v -8.000001 -9.999999 -68.299988
v 7.999996 -9.999999 68.299988
v -8.000001 -9.999999 68.299988
v -8.000001 9.999999 -68.299988
v -8.000001 9.999999 68.299988
v 7.999996 9.999999 68.299988
v 7.999996 9.999999 -68.299988
v 7.999996 -2.000000 68.299988
v -8.000001 -2.000000 68.299988
v -8.000001 -1.999999 -68.299988
v 7.999996 -2.000000 -68.299988
vn -0.0000 1.0000 -0.0000
vn -1.0000 -0.0000 -0.0000
vn 1.0000 -0.0000 -0.0000
vn -0.0000 -0.0000 -1.0000
vt 0.037500 -0.000000
vt 0.037500 1.000000
vt 0.000000 1.000000
vt 0.000000 -0.000000
s 0
usemtl Caution_Texture
f 44/9/7 43/10/7 41/11/7 42/12/7
f 52/11/8 49/10/8 47/10/8 48/11/8
f 50/9/9 51/12/9 45/12/9 46/9/9
f 43/10/10 44/9/10 50/9/10 49/10/10
f 44/9/9 42/12/9 51/12/9 50/9/9
f 41/11/8 43/10/8 49/10/8 52/11/8
o Cube.001
v -8.000002 -1.999999 26.937496
v 7.999998 -1.999999 26.937496
v -8.000002 -1.999999 25.952782
v 7.999998 -1.999999 25.952782
v -8.000002 -2.399999 26.937496
v 7.999998 -2.399999 26.937496
v -8.000002 -2.399999 25.952782
v 7.999998 -2.399999 25.952782
v -8.000002 -1.999999 24.229525
v 7.999998 -1.999999 24.229525
v -8.000002 -1.999999 23.244808
v 7.999998 -1.999999 23.244808
v -8.000002 -2.399999 24.229525
v 7.999998 -2.399999 24.229525
v -8.000002 -2.399999 23.244808
v 7.999998 -2.399999 23.244808
v -8.000002 -1.999999 20.438370
v 7.999998 -1.999999 20.438370
v -8.000002 -1.999999 19.650593
v 7.999998 -1.999999 19.650593
v -8.000002 -2.399999 20.438370
v 7.999998 -2.399999 20.438370
v -8.000002 -2.399999 19.650593
v 7.999998 -2.399999 19.650593
v -8.000002 -1.999999 18.567406
v 7.999998 -1.999999 18.567406
v -8.000002 -1.999999 17.582689
v 7.999998 -1.999999 17.582689
v -8.000002 -2.399999 18.567406
v 7.999998 -2.399999 18.567406
v -8.000002 -2.399999 17.582689
v 7.999998 -2.399999 17.582689
v -8.000002 -1.999999 14.628541
v 7.999998 -1.999999 14.628541
v -8.000002 -1.999999 14.136182
v 7.999998 -1.999999 14.136182
v -8.000002 -2.399999 14.628541
v 7.999998 -2.399999 14.628541
v -8.000002 -2.399999 14.136182
v 7.999998 -2.399999 14.136182
vn -0.0000 1.0000 -0.0000
vn -0.0000 -1.0000 -0.0000
vn -0.0000 -0.0000 1.0000
vn -1.0000 -0.0000 -0.0000
vn -0.0000 -0.0000 -1.0000
vn 1.0000 -0.0000 -0.0000
vt 0.000000 0.000000
s 0
f 54/13/11 56/13/11 55/13/11 53/13/11
f 58/13/12 57/13/12 59/13/12 60/13/12
f 54/13/13 53/13/13 57/13/13 58/13/13
f 53/13/14 55/13/14 59/13/14 57/13/14
f 55/13/15 56/13/15 60/13/15 59/13/15
f 56/13/16 54/13/16 58/13/16 60/13/16
f 62/13/11 64/13/11 63/13/11 61/13/11
f 66/13/12 65/13/12 67/13/12 68/13/12
f 62/13/13 61/13/13 65/13/13 66/13/13
f 61/13/14 63/13/14 67/13/14 65/13/14
f 63/13/15 64/13/15 68/13/15 67/13/15
f 64/13/16 62/13/16 66/13/16 68/13/16
f 70/13/11 72/13/11 71/13/11 69/13/11
f 74/13/12 73/13/12 75/13/12 76/13/12
f 70/13/13 69/13/13 73/13/13 74/13/13
f 69/13/14 71/13/14 75/13/14 73/13/14
f 71/13/15 72/13/15 76/13/15 75/13/15
f 72/13/16 70/13/16 74/13/16 76/13/16
f 78/13/11 80/13/11 79/13/11 77/13/11
f 82/13/12 81/13/12 83/13/12 84/13/12
f 78/13/13 77/13/13 81/13/13 82/13/13
f 77/13/14 79/13/14 83/13/14 81/13/14
f 79/13/15 80/13/15 84/13/15 83/13/15
f 80/13/16 78/13/16 82/13/16 84/13/16
f 86/13/11 88/13/11 87/13/11 85/13/11
f 90/13/12 89/13/12 91/13/12 92/13/12
f 86/13/13 85/13/13 89/13/13 90/13/13
f 85/13/14 87/13/14 91/13/14 89/13/14
f 87/13/15 88/13/15 92/13/15 91/13/15
f 88/13/16 86/13/16 90/13/16 92/13/16
o Cube.002
v -8.000002 -10.000000 11.740745
v -8.000002 -1.999999 11.740745
v -8.000002 -10.000000 5.660745
v -8.000002 -1.999999 5.660745
v 7.999998 -10.000000 11.740745
v 7.999998 -1.999999 11.740745
v 7.999998 -10.000000 5.660745
v 7.999998 -1.999999 5.660745
v -8.000002 -10.000000 34.740749
v -8.000002 -1.999999 34.740749
v -8.000002 -10.000000 28.660748
v -8.000002 -1.999999 28.660748
v 7.999998 -10.000000 34.740749
v 7.999998 -1.999999 34.740749
v 7.999998 -10.000000 28.660748
v 7.999998 -1.999999 28.660748
v -8.000002 -10.000000 -35.259254
v -8.000002 3.000001 -35.259254
v -8.000002 -10.000000 -41.339256
v -8.000002 3.000001 -41.339256
v 7.999998 -10.000000 -35.259254
v 7.999998 3.000001 -35.259254
v 7.999998 -10.000000 -41.339256
v 7.999998 3.000001 -41.339256
vn -1.0000 -0.0000 -0.0000
vn -0.0000 -0.0000 -1.0000
vn 1.0000 -0.0000 -0.0000
vn -0.0000 -0.0000 1.0000
vn -0.0000 -1.0000 -0.0000
vn -0.0000 1.0000 -0.0000
vt 0.375000 0.000000
vt 0.625000 0.000000
vt 0.625000 0.250000
vt 0.375000 0.250000
vt 0.625000 0.500000
vt 0.375000 0.500000
vt 0.625000 0.750000
vt 0.375000 0.750000
vt 0.625000 1.000000
vt 0.375000 1.000000
vt 0.125000 0.500000
vt 0.125000 0.750000
vt 0.875000 0.500000
vt 0.875000 0.750000
s 0
f 93/14/17 94/15/17 96/16/17 95/17/17
f 95/17/18 96/16/18 100/18/18 99/19/18
f 99/19/19 100/18/19 98/20/19 97/21/19
f 97/21/20 98/20/20 94/22/20 93/23/20
f 95/24/21 99/19/21 97/21/21 93/25/21
f 100/18/22 96/26/22 94/27/22 98/20/22
f 101/14/17 102/15/17 104/16/17 103/17/17
f 103/17/18 104/16/18 108/18/18 107/19/18
f 107/19/19 108/18/19 106/20/19 105/21/19
f 105/21/20 106/20/20 102/22/20 101/23/20
f 103/24/21 107/19/21 105/21/21 101/25/21
f 108/18/22 104/26/22 102/27/22 106/20/22
f 109/14/17 110/15/17 112/16/17 111/17/17
f 111/17/18 112/16/18 116/18/18 115/19/18
f 115/19/19 116/18/19 114/20/19 113/21/19
f 113/21/20 114/20/20 110/22/20 109/23/20
f 111/24/21 115/19/21 113/21/21 109/25/21
f 116/18/22 112/26/22 110/27/22 114/20/22
o Steps
v 7.999998 -1.999999 -7.139254
v 7.999998 -1.760000 5.660746
v 7.999998 -1.999999 5.660746
v -8.000002 -1.999999 -7.139254
v -8.000002 -1.760000 5.660746
v -8.000002 -1.999999 5.660746
v 7.999998 -1.760000 5.020746
v -8.000002 -1.760000 5.020746
v 7.999998 -1.520000 4.380746
v 7.999998 -1.520000 5.020746
v -8.000002 -1.520000 5.020746
v -8.000002 -1.520000 4.380746
v 7.999998 -1.279999 3.740746
v 7.999998 -1.279999 4.380746
v -8.000002 -1.279999 4.380746
v -8.000002 -1.279999 3.740746
v 7.999998 -1.039999 3.100746
v 7.999998 -1.039999 3.740746
v -8.000002 -1.039999 3.740746
v -8.000002 -1.039999 3.100745
v 7.999998 -0.799999 2.460746
v 7.999998 -0.799999 3.100746
v -8.000002 -0.799999 3.100745
v -8.000002 -0.799999 2.460746
v 7.999998 -0.559999 1.820746
v 7.999998 -0.559999 2.460746
v -8.000002 -0.559999 2.460746
v -8.000002 -0.559999 1.820745
v 7.999998 -0.319999 1.180746
v 7.999998 -0.319999 1.820746
v -8.000002 -0.319999 1.820745
v -8.000002 -0.319999 1.180745
v 7.999998 -0.079999 0.540746
v 7.999998 -0.079999 1.180746
v -8.000002 -0.079999 1.180745
v -8.000002 -0.079999 0.540746
v 7.999998 0.160001 -0.099254
v 7.999998 0.160001 0.540746
v -8.000002 0.160001 0.540746
v -8.000002 0.160001 -0.099254
v 7.999998 0.400001 -0.739254
v 7.999998 0.400001 -0.099254
v -8.000002 0.400001 -0.099254
v -8.000002 0.400001 -0.739254
v 7.999998 0.640001 -1.379254
v 7.999998 0.640001 -0.739254
v -8.000002 0.640001 -0.739254
v -8.000002 0.640001 -1.379254
v 7.999998 0.880001 -2.019253
v 7.999998 0.880001 -1.379254
v -8.000002 0.880001 -1.379254
v -8.000002 0.880001 -2.019254
v 7.999998 1.120001 -2.659254
v 7.999998 1.120001 -2.019253
v -8.000002 1.120001 -2.019254
v -8.000002 1.120001 -2.659254
v 7.999998 1.360001 -3.299253
v 7.999998 1.360001 -2.659254
v -8.000002 1.360001 -2.659254
v -8.000002 1.360001 -3.299254
v 7.999998 1.600001 -3.939253
v 7.999998 1.600001 -3.299253
v -8.000002 1.600001 -3.299254
v -8.000002 1.600001 -3.939254
v 7.999998 1.840001 -4.579254
v 7.999998 1.840001 -3.939253
v -8.000002 1.840001 -3.939254
v -8.000002 1.840001 -4.579254
v 7.999998 2.080001 -5.219254
v 7.999998 2.080001 -4.579254
v -8.000002 2.080001 -4.579254
v -8.000002 2.080001 -5.219254
v 7.999998 2.320001 -5.859254
v 7.999998 2.320001 -5.219254
v -8.000002 2.320001 -5.219254
v -8.000002 2.320001 -5.859254
v -8.000002 2.560001 -6.499254
v 7.999998 2.560001 -6.499254
v 7.999998 2.560001 -5.859254
v -8.000002 2.560001 -5.859254
v -8.000002 2.800001 -6.499254
v -8.000002 2.800001 -7.139254
v 7.999998 2.800001 -7.139254
v 7.999998 2.800001 -6.499254
vn -0.0000 1.0000 -0.0000
vn -0.0000 -0.0000 1.0000
vn -0.0000 -1.0000 -0.0000
vn -0.0000 -0.0000 -1.0000
vn 1.0000 -0.0000 -0.0000
vn -1.0000 -0.0000 -0.0000
vt 1.002500 -0.904500
vt -0.002500 -0.904500
vt -0.002500 -0.954750
vt 1.002500 -0.954750
vt 1.002500 -1.005000
vt -0.002500 -1.005000
vt 1.000000 -0.152000
vt 0.000000 -0.152000
vt 0.000000 0.848000
vt 1.000000 0.848000
vt 1.002500 -0.854250
vt -0.002500 -0.854250
vt 1.002500 -0.804000
vt -0.002500 -0.804000
vt 0.000000 0.152000
vt 0.000000 1.152000
vt 1.000000 1.152000
vt 1.000000 0.152000
vt 1.002500 -0.703500
vt -0.002500 -0.703500
vt -0.002500 -0.753750
vt 1.002500 -0.753750
vt -0.002500 -0.603000
vt 1.002500 -0.603000
vt 1.002500 -0.552750
vt -0.002500 -0.552750
vt -0.002500 -0.653250
vt 1.002500 -0.653250
vt -0.002500 -0.502500
vt 1.002500 -0.502500
vt 1.002500 -0.452250
vt -0.002500 -0.452250
vt 0.398000 0.702000
vt 0.348000 0.702000
vt 0.348000 0.652000
vt 0.298000 0.652000
vt 0.298000 0.602000
vt 0.248000 0.602000
vt 0.248000 0.552000
vt 0.198000 0.552000
vt 0.198000 0.502000
vt 0.148000 0.502000
vt 0.148000 0.452000
vt 0.098000 0.452000
vt 0.098000 0.402000
vt 0.048000 0.402000
vt 0.048000 0.352000
vt -0.002000 0.352000
vt -0.002000 0.302000
vt -0.052000 0.302000
vt -0.052000 0.252000
vt -0.102000 0.252000
vt -0.102000 0.202000
vt -0.152000 0.202000
vt -0.152000 0.152000
vt 0.848000 0.152000
vt 0.848000 1.152000
vt 0.798000 1.152000
vt 0.798000 1.102000
vt 0.748000 1.102000
vt 0.748000 1.052000
vt 0.698000 1.052000
vt 0.698000 1.002000
vt 0.648000 1.002000
vt 0.648000 0.952000
vt 0.598000 0.952000
vt 0.598000 0.902000
vt 0.548000 0.902000
vt 0.548000 0.852000
vt 0.498000 0.852000
vt 0.498000 0.802000
vt 0.448000 0.802000
vt 0.448000 0.752000
vt 0.398000 0.752000
vt 0.048000 0.352000
vt 0.048000 0.402000
vt 0.098000 0.402000
vt 0.098000 0.452000
vt 0.148000 0.452000
vt 0.148000 0.502000
vt 0.198000 0.502000
vt 0.198000 0.552000
vt 0.248000 0.552000
vt 0.248000 0.602000
vt 0.298000 0.602000
vt 0.298000 0.652000
vt 0.348000 0.652000
vt 0.348000 0.702000
vt 0.398000 0.702000
vt 0.398000 0.752000
vt 0.448000 0.752000
vt 0.448000 0.802000
vt 0.498000 0.802000
vt 0.498000 0.852000
vt 0.548000 0.852000
vt 0.548000 0.902000
vt 0.598000 0.902000
vt 0.598000 0.952000
vt 0.648000 0.952000
vt 0.648000 1.002000
vt 0.698000 1.002000
vt 0.698000 1.052000
vt 0.748000 1.052000
vt 0.748000 1.102000
vt -0.002000 0.302000
vt -0.002000 0.352000
vt -0.002500 -0.402000
vt 1.002500 -0.402000
vt 1.002500 -0.351750
vt -0.002500 -0.351750
vt 1.002500 -0.301500
vt -0.002500 -0.301500
vt -0.002500 -0.201000
vt 1.002500 -0.201000
vt 1.002500 -0.150750
vt -0.002500 -0.150750
vt -0.002500 -0.251250
vt 1.002500 -0.251250
vt 1.002500 -0.100500
vt -0.002500 -0.100500
vt -0.002500 0.000000
vt 1.002500 -0.000000
vt 1.002500 0.050250
vt -0.002500 0.050250
vt -0.002500 -0.050250
vt 1.002500 -0.050250
vt -0.002500 0.100500
vt 1.002500 0.100500
vt 1.002500 0.150750
vt -0.002500 0.150750
vt 1.002500 0.201000
vt -0.002500 0.201000
vt 1.002500 0.301500
vt -0.002500 0.301500
vt -0.002500 0.251250
vt 1.002500 0.251250
vt 1.002500 0.402000
vt -0.002500 0.402000
vt -0.002500 0.351750
vt 1.002500 0.351750
vt 1.002500 0.502500
vt -0.002500 0.502500
vt -0.002500 0.452250
vt 1.002500 0.452250
vt 1.002500 0.603000
vt -0.002500 0.603000
vt -0.002500 0.552750
vt 1.002500 0.552750
vt -0.002500 0.703500
vt 1.002500 0.703500
vt 1.002500 0.753750
vt -0.002500 0.753750
vt -0.002500 0.653250
vt 1.002500 0.653250
vt 1.002500 0.804000
vt -0.002500 0.804000
vt 1.002500 0.904500
vt -0.002500 0.904500
vt -0.002500 0.854250
vt 1.002500 0.854250
vt 1.002500 1.005000
vt -0.002500 1.005000
vt -0.002500 0.954750
vt 1.002500 0.954750
s 0
usemtl Material
f 123/28/23 124/29/23 121/30/23 118/31/23
f 119/32/24 118/31/24 121/30/24 122/33/24
f 119/34/25 122/35/25 120/36/25 117/37/25
f 124/29/24 123/28/24 126/38/24 127/39/24
f 125/40/23 128/41/23 127/39/23 126/38/23
f 120/42/26 198/43/26 199/44/26 117/45/26
f 129/46/23 132/47/23 131/48/23 130/49/23
f 128/41/24 125/40/24 130/49/24 131/48/24
f 136/50/24 133/51/24 138/52/24 139/53/24
f 133/51/23 136/50/23 135/54/23 134/55/23
f 132/47/24 129/46/24 134/55/24 135/54/24
f 140/56/24 137/57/24 142/58/24 143/59/24
f 137/57/23 140/56/23 139/53/23 138/52/23
f 161/60/27 162/61/27 157/62/27 158/63/27 153/64/27 154/65/27 149/66/27 150/67/27 145/68/27 146/69/27 141/70/27 142/71/27 137/72/27 138/73/27 133/74/27 134/75/27 129/76/27 130/77/27 125/78/27 126/79/27 123/80/27 118/81/27 119/82/27 117/83/27 199/84/27 200/85/27 194/86/27 195/87/27 189/88/27 190/89/27 185/90/27 186/91/27 181/92/27 182/93/27 177/94/27 178/95/27 173/96/27 174/97/27 169/98/27 170/99/27 165/100/27 166/101/27
f 136/102/28 139/103/28 140/104/28 143/105/28 144/106/28 147/107/28 148/108/28 151/109/28 152/110/28 155/111/28 156/112/28 159/113/28 160/114/28 163/115/28 164/116/28 167/117/28 168/118/28 171/119/28 172/120/28 175/121/28 176/122/28 179/123/28 180/124/28 183/125/28 184/126/28 187/127/28 188/128/28 191/129/28 192/130/28 196/131/28 193/86/28 197/85/28 198/84/28 120/83/28 122/82/28 121/81/28 124/80/28 127/79/28 128/78/28 131/77/28 132/132/28 135/133/28
f 144/134/24 141/135/24 146/136/24 147/137/24
f 141/135/23 144/134/23 143/59/23 142/58/23
f 145/138/23 148/139/23 147/137/23 146/136/23
f 152/140/24 149/141/24 154/142/24 155/143/24
f 149/141/23 152/140/23 151/144/23 150/145/23
f 148/139/24 145/138/24 150/145/24 151/144/24
f 153/146/23 156/147/23 155/143/23 154/142/23
f 160/148/24 157/149/24 162/150/24 163/151/24
f 157/149/23 160/148/23 159/152/23 158/153/23
f 156/147/24 153/146/24 158/153/24 159/152/24
f 164/154/24 161/155/24 166/156/24 167/157/24
f 161/155/23 164/154/23 163/151/23 162/150/23
f 165/158/23 168/159/23 167/157/23 166/156/23
f 169/160/23 172/161/23 171/162/23 170/163/23
f 168/159/24 165/158/24 170/163/24 171/162/24
f 173/164/23 176/165/23 175/166/23 174/167/23
f 172/161/24 169/160/24 174/167/24 175/166/24
f 177/168/23 180/169/23 179/170/23 178/171/23
f 176/165/24 173/164/24 178/171/24 179/170/24
f 181/172/23 184/173/23 183/174/23 182/175/23
f 180/169/24 177/168/24 182/175/24 183/174/24
f 188/176/24 185/177/24 190/178/24 191/179/24
f 185/177/23 188/176/23 187/180/23 186/181/23
f 184/173/24 181/172/24 186/181/24 187/180/24
f 189/182/23 192/183/23 191/179/23 190/178/23
f 194/184/23 193/185/23 196/186/23 195/187/23
f 192/183/24 189/182/24 195/187/24 196/186/24
f 199/188/23 198/189/23 197/190/23 200/191/23
f 193/185/24 194/184/24 200/191/24 197/190/24
o Platform.002
v 2.492214 2.924611 -12.546108
v 2.492214 2.675390 -12.546108
v 2.492214 2.924611 -10.053890
v 2.492214 2.675390 -10.053890
v -2.492218 2.924611 -12.546108
v -2.492218 2.675390 -12.546108
v -2.492218 2.924611 -10.053890
v -2.492218 2.675390 -10.053890
v 6.492214 3.115979 -17.297779
v 6.492214 2.878824 -17.374386
v 6.492214 2.349914 -14.926220
v 6.492214 2.112758 -15.002827
v 1.507782 3.115979 -17.297779
v 1.507782 2.878824 -17.374386
v 1.507782 2.349914 -14.926220
v 1.507782 2.112758 -15.002827
v 0.510451 3.026409 -22.368874
v 0.510451 2.777188 -22.368874
v 0.510451 3.026409 -19.876656
v 0.510451 2.777188 -19.876656
v -4.473981 3.026409 -22.368874
v -4.473981 2.777188 -22.368874
v -4.473981 3.026409 -19.876656
v -4.473981 2.777188 -19.876656
v 2.473898 2.301766 -26.674873
v 2.531762 2.069674 -26.604897
v 2.304625 2.980727 -24.282909
v 2.362488 2.748635 -24.212933
v -2.362492 1.095994 -26.674873
v -2.304629 0.863903 -26.604897
v -2.531765 1.774956 -24.282909
v -2.473902 1.542864 -24.212933
v 0.756619 2.746487 -31.408283
v 0.700629 2.515913 -31.484520
v 0.576720 2.005641 -29.035542
v 0.520730 1.775067 -29.111782
v -4.087053 3.922670 -31.408283
v -4.143043 3.692096 -31.484520
v -4.266952 3.181824 -29.035542
v -4.322942 2.951250 -29.111782
vn -0.0000 1.0000 -0.0000
vn -0.0000 -0.0000 1.0000
vn -1.0000 -0.0000 -0.0000
vn -0.0000 -1.0000 -0.0000
vn 1.0000 -0.0000 -0.0000
vn -0.0000 -0.0000 -1.0000
vn -0.0000 0.9516 0.3074
vn -0.0000 -0.3074 0.9516
vn -0.0000 -0.9516 -0.3074
vn -0.0000 0.3074 -0.9516
vn -0.2322 0.9313 -0.2808
vn -0.0679 0.2725 0.9598
vn -0.9703 -0.2419 -0.0000
vn 0.2322 -0.9313 0.2808
vn 0.9703 0.2419 -0.0000
vn 0.0679 -0.2724 -0.9598
vn 0.2247 0.9252 0.3059
vn -0.0722 -0.2973 0.9521
vn -0.9718 0.2360 -0.0000
vn -0.2247 -0.9252 -0.3059
vn 0.9718 -0.2360 -0.0000
vn 0.0722 0.2973 -0.9521
vt 1.000000 1.000000
vt 0.000000 1.000000
vt 0.000000 0.000000
vt 1.000000 0.000000
vt 1.000000 0.475000
vt 1.000000 0.525000
vt 0.000000 0.525000
vt 0.000000 0.475000
s 0
usemtl Material
f 201/192/29 205/193/29 207/194/29 203/195/29
f 204/196/30 203/197/30 207/198/30 208/199/30
f 208/199/31 207/198/31 205/197/31 206/196/31
f 206/193/32 202/192/32 204/195/32 208/194/32
f 202/196/33 201/197/33 203/198/33 204/199/33
f 206/199/34 205/198/34 201/197/34 202/196/34
f 209/192/35 213/193/35 215/194/35 211/195/35
f 212/196/36 211/197/36 215/198/36 216/199/36
f 216/199/31 215/198/31 213/197/31 214/196/31
f 214/193/37 210/192/37 212/195/37 216/194/37
f 210/196/33 209/197/33 211/198/33 212/199/33
f 214/199/38 213/198/38 209/197/38 210/196/38
f 217/192/29 221/193/29 223/194/29 219/195/29
f 220/196/30 219/197/30 223/198/30 224/199/30
f 224/199/31 223/198/31 221/197/31 222/196/31
f 222/193/32 218/192/32 220/195/32 224/194/32
f 218/196/33 217/197/33 219/198/33 220/199/33
f 222/199/34 221/198/34 217/197/34 218/196/34
f 225/192/39 229/193/39 231/194/39 227/195/39
f 228/196/40 227/197/40 231/198/40 232/199/40
f 232/199/41 231/198/41 229/197/41 230/196/41
f 230/193/42 226/192/42 228/195/42 232/194/42
f 226/196/43 225/197/43 227/198/43 228/199/43
f 230/199/44 229/198/44 225/197/44 226/196/44
f 233/192/45 237/193/45 239/194/45 235/195/45
f 236/196/46 235/197/46 239/198/46 240/199/46
f 240/199/47 239/198/47 237/197/47 238/196/47
f 238/193/48 234/192/48 236/195/48 240/194/48
f 234/196/49 233/197/49 235/198/49 236/199/49
f 238/199/50 237/198/50 233/197/50 234/196/50
