# Blender 4.2.2 LTS
# www.blender.org
mtllib Parallel_Walls.mtl
o Wall_Jump
v 4.099999 0.000000 -1.000000
v 3.999999 0.000000 -1.000000
v 4.099999 0.000000 1.000000
v 3.999999 0.000000 1.000000
v 4.099999 2.000000 -1.000000
v 3.999999 2.000000 -1.000000
v 4.099999 2.000000 1.000000
v 3.999999 2.000000 1.000000
v 4.999999 0.000000 -1.000000
v 4.899999 0.000000 -1.000000
v 4.999999 0.000000 1.000000
v 4.899999 0.000000 1.000000
v 4.999999 2.000000 -1.000000
v 4.899999 2.000000 -1.000000
v 4.999999 2.000000 1.000000
v 4.899999 2.000000 1.000000
vn 1.0000 -0.0000 -0.0000
vn -0.0000 -0.0000 1.0000
vn -0.0000 1.0000 -0.0000
vn -1.0000 -0.0000 -0.0000
vn -0.0000 -1.0000 -0.0000
vn -0.0000 -0.0000 -1.0000
vt 1.000000 1.000000
vt 0.000000 1.000000
vt 0.000000 0.000000
vt 1.000000 0.000000
vt 1.000000 0.250000
vt 1.000000 0.300000
vt 0.000000 0.300000
vt 0.000000 0.250000
vt 1.000000 0.700000
vt 1.000000 0.750000
vt 0.000000 0.750000
vt 0.000000 0.700000
s 0
usemtl Material
f 1/1/1 5/2/1 7/3/1 3/4/1
f 4/5/2 3/6/2 7/7/2 8/8/2
f 8/8/3 7/7/3 5/6/3 6/5/3
f 6/2/4 2/1/4 4/4/4 8/3/4
f 2/5/5 1/6/5 3/7/5 4/8/5
f 6/8/6 5/7/6 1/6/6 2/5/6
f 9/1/1 13/2/1 15/3/1 11/4/1
f 12/9/2 11/10/2 15/11/2 16/12/2
f 16/12/3 15/11/3 13/10/3 14/9/3
f 14/2/4 10/1/4 12/4/4 16/3/4
f 10/9/5 9/10/5 11/11/5 12/12/5
f 14/12/6 13/11/6 9/10/6 10/9/6
