# Blender 4.2.2 LTS
# www.blender.org
mtllib Slide_Obstacles.mtl
o Slide_Obstacle
v 8.000000 2.000000 -1.000000
v 8.000000 0.000000 -1.000000
v 8.000000 2.000000 1.000000
v 8.000000 0.000000 1.000000
v 6.000000 2.000000 -1.000000
v 6.000000 0.000000 -1.000000
v 6.000000 2.000000 1.000000
v 6.000000 0.000000 1.000000
v 7.483333 0.000000 -1.000000
v 6.516666 0.000000 -1.000000
v 7.483333 2.000000 1.000000
v 6.516666 2.000000 1.000000
v 6.516666 0.000000 1.000000
v 7.483333 0.000000 1.000000
v 6.516666 2.000000 -1.000000
v 7.483333 2.000000 -1.000000
v 8.000000 0.500000 -1.000000
v 6.000000 0.500000 1.000000
v 8.000000 0.500000 1.000000
v 6.000000 0.500000 -1.000000
v 6.516666 0.500000 -1.000000
v 7.483333 0.500000 -1.000000
v 7.483333 0.500000 1.000000
v 6.516666 0.500000 1.000000
vn -0.0000 1.0000 -0.0000
vn -0.0000 -0.0000 1.0000
vn -1.0000 -0.0000 -0.0000
vn -0.0000 -1.0000 -0.0000
vn 1.0000 -0.0000 -0.0000
vn -0.0000 -0.0000 -1.0000
vt 0.258333 1.000000
vt 0.000000 1.000000
vt 0.000000 0.000000
vt 0.258333 0.000000
vt 0.258333 0.329545
vt 0.258333 1.079545
vt 0.000000 1.079545
vt 0.000000 0.329545
vt 1.000000 1.079545
vt 1.000000 0.329545
vt 0.741667 1.000000
vt 1.000000 1.000000
vt 1.000000 0.000000
vt 0.741667 0.000000
vt 0.741667 0.329545
vt 0.741667 1.079545
vt 1.000000 0.079545
vt 0.000000 0.079545
vt 0.741667 0.079545
vt 0.258333 0.079545
s 0
usemtl Material
f 15/1/1 5/2/1 7/3/1 12/4/1
f 24/5/2 12/6/2 7/7/2 18/8/2
f 18/8/3 7/7/3 5/9/3 20/10/3
f 9/11/4 2/12/4 4/13/4 14/14/4
f 17/10/5 1/9/5 3/7/5 19/8/5
f 22/15/6 16/16/6 1/9/6 17/10/6
f 20/8/6 5/7/6 15/6/6 21/5/6
f 21/5/6 15/6/6 16/16/6 22/15/6
f 6/2/4 10/1/4 13/4/4 8/3/4
f 23/8/3 22/10/3 9/17/3 14/18/3
f 19/10/2 3/9/2 11/16/2 23/15/2
f 23/15/2 11/16/2 12/6/2 24/5/2
f 1/12/1 16/11/1 11/14/1 3/13/1
f 16/11/1 15/1/1 12/4/1 11/14/1
f 23/14/4 24/4/4 21/1/4 22/11/4
f 4/17/2 19/10/2 23/15/2 14/19/2
f 24/8/5 13/18/5 10/17/5 21/10/5
f 6/18/6 20/8/6 21/5/6 10/20/6
f 9/19/6 22/15/6 17/10/6 2/17/6
f 2/17/5 17/10/5 19/8/5 4/18/5
f 8/18/3 18/8/3 20/10/3 6/17/3
f 13/20/2 24/5/2 18/8/2 8/18/2
